<svg width="20" height="20" viewBox="0 0 20 20" fill="none" xmlns="http://www.w3.org/2000/svg">
<path d="M12.4759 18.9577H7.47591C2.95091 18.9577 1.01758 17.0243 1.01758 12.4993V7.49935C1.01758 2.97435 2.95091 1.04102 7.47591 1.04102H12.4759C17.0009 1.04102 18.9342 2.97435 18.9342 7.49935V12.4993C18.9342 17.0243 17.0092 18.9577 12.4759 18.9577ZM7.47591 2.29102C3.63424 2.29102 2.26758 3.65768 2.26758 7.49935V12.4993C2.26758 16.341 3.63424 17.7077 7.47591 17.7077H12.4759C16.3176 17.7077 17.6842 16.341 17.6842 12.4993V7.49935C17.6842 3.65768 16.3176 2.29102 12.4759 2.29102H7.47591Z" fill="#121212"/>
<path d="M6.64258 18.9577C6.30091 18.9577 6.01758 18.6744 6.01758 18.3327V1.66602C6.01758 1.32435 6.30091 1.04102 6.64258 1.04102C6.98424 1.04102 7.26758 1.32435 7.26758 1.66602V18.3327C7.26758 18.6744 6.99258 18.9577 6.64258 18.9577Z" fill="#121212"/>
<path d="M12.475 12.7568C12.3167 12.7568 12.1583 12.6985 12.0333 12.5735L9.9 10.4401C9.65833 10.1985 9.65833 9.79845 9.9 9.55679L12.0333 7.42344C12.275 7.18177 12.675 7.18177 12.9167 7.42344C13.1583 7.6651 13.1583 8.0651 12.9167 8.30677L11.2333 9.99845L12.925 11.6901C13.1667 11.9318 13.1667 12.3318 12.925 12.5735C12.8 12.6985 12.6417 12.7568 12.475 12.7568Z" fill="#121212"/>
</svg>
